<?xml version="1.0" encoding="UTF-8" standalone="no"?>
<!-- Created with Inkscape (http://www.inkscape.org/) -->

<svg
   xmlns:dc="http://purl.org/dc/elements/1.1/"
   xmlns:cc="http://creativecommons.org/ns#"
   xmlns:rdf="http://www.w3.org/1999/02/22-rdf-syntax-ns#"
   xmlns:svg="http://www.w3.org/2000/svg"
   xmlns="http://www.w3.org/2000/svg"
   xmlns:sodipodi="http://sodipodi.sourceforge.net/DTD/sodipodi-0.dtd"
   xmlns:inkscape="http://www.inkscape.org/namespaces/inkscape"
   width="95"
   height="95"
   id="svg2"
   version="1.1"
   inkscape:version="0.48.2 r9819"
   sodipodi:docname="cocoaheads-logo.svg"
   inkscape:export-xdpi="90"
   inkscape:export-ydpi="90">
  <defs
     id="defs4" />
  <sodipodi:namedview
     id="base"
     pagecolor="#ffffff"
     bordercolor="#666666"
     borderopacity="1.0"
     inkscape:pageopacity="0.0"
     inkscape:pageshadow="2"
     inkscape:zoom="8.0210526"
     inkscape:cx="47.499999"
     inkscape:cy="47.499997"
     inkscape:document-units="px"
     inkscape:current-layer="layer2"
     showgrid="false"
     inkscape:window-width="1620"
     inkscape:window-height="1006"
     inkscape:window-x="60"
     inkscape:window-y="0"
     inkscape:window-maximized="1" />
  <metadata
     id="metadata7">
    <rdf:RDF>
      <cc:Work
         rdf:about="">
        <dc:format>image/svg+xml</dc:format>
        <dc:type
           rdf:resource="http://purl.org/dc/dcmitype/StillImage" />
        <dc:title />
      </cc:Work>
    </rdf:RDF>
  </metadata>
  <g
     inkscape:groupmode="layer"
     id="layer2"
     inkscape:label="vector"
     style="display:inline"
     sodipodi:insensitive="true">
    <path
       style="fill:none;stroke:#391f0d;stroke-width:3;stroke-linecap:round;stroke-linejoin:round;stroke-miterlimit:4;stroke-opacity:1;stroke-dasharray:none"
       d="m 33.75,11.302494 c 0,0 3.303775,2.768305 3.677822,5.5479 0.374047,2.779595 -3.513883,7.048676 -3.179134,9.662073 C 34.583437,29.125864 37.30315,31.25 37.30315,31.25"
       id="path3872"
       inkscape:connector-curvature="0"
       sodipodi:nodetypes="czzc" />
    <path
       sodipodi:nodetypes="czzc"
       inkscape:connector-curvature="0"
       id="path3874"
       d="m 48.75,11.302494 c 0,0 3.303775,2.768305 3.677822,5.5479 0.374047,2.779595 -3.513883,7.048676 -3.179134,9.662073 C 49.583437,29.125864 52.30315,31.25 52.30315,31.25"
       style="fill:none;stroke:#391f0d;stroke-width:3;stroke-linecap:round;stroke-linejoin:round;stroke-miterlimit:4;stroke-opacity:1;stroke-dasharray:none" />
    <path
       style="fill:none;stroke:#391f0d;stroke-width:3;stroke-linecap:round;stroke-linejoin:round;stroke-miterlimit:4;stroke-opacity:1;stroke-dasharray:none"
       d="m 20.75,11.302494 c 0,0 3.303775,2.768305 3.677822,5.5479 0.374047,2.779595 -3.513883,7.048676 -3.179134,9.662073 C 21.583437,29.125864 24.30315,31.25 24.30315,31.25"
       id="path3876"
       inkscape:connector-curvature="0"
       sodipodi:nodetypes="czzc" />
    <path
       style="fill:none;stroke:#391f0d;stroke-width:3;stroke-linecap:round;stroke-linejoin:round;stroke-miterlimit:4;stroke-opacity:1;stroke-dasharray:none"
       d="m 26.799533,38.227306 c 3.007737,-0.457269 4.90896,-0.889588 7.268691,-1.132835 2.359731,-0.243247 5.261844,-0.34356 6.844684,-0.201765 1.58284,0.141795 1.253861,0.731806 2.371948,0.981931"
       id="path3878"
       inkscape:connector-curvature="0"
       sodipodi:nodetypes="czzc" />
    <path
       style="fill:none;stroke:#391f0d;stroke-width:3;stroke-linecap:round;stroke-linejoin:round;stroke-miterlimit:4;stroke-opacity:1;stroke-dasharray:none"
       d="m 18.424679,40.960153 c 2.423124,-0.574887 5.176719,-0.158326 7.16803,1.216061 1.991311,1.374387 2.217262,4.998491 1.088746,6.373521 -1.128516,1.37503 -1.289745,0.853387 -2.704321,1.536618 -1.414576,0.683231 -3.560261,1.454278 -6.143424,1.338221 C 15.250547,51.308517 10.70835,51.436589 8.7897558,50.33286 6.8711618,49.229131 6.8311214,48.883178 6.0990145,47.660533 5.3669076,46.437888 5.2553113,44.01992 6.303975,43.077976 7.3526387,42.136032 8.2794961,42.364634 9.1998281,41.996175 10.12016,41.627716 10.98557,41.37333 11.901115,41.136401"
       id="path3886"
       inkscape:connector-curvature="0"
       sodipodi:nodetypes="czzzzzzzzc" />
    <path
       style="fill:none;stroke:#391f0d;stroke-width:3;stroke-linecap:round;stroke-linejoin:round;stroke-miterlimit:4;stroke-opacity:1;stroke-dasharray:none"
       d="m 36.584888,48.365287 c -1.192741,0.98256 -1.406234,2.519427 -1.394399,3.954309 -0.197206,1.745995 -1.43185,3.656379 -0.277383,5.309545 1.301938,2.195458 4.359526,2.123778 6.419121,1.167542 1.020977,-0.364452 1.828306,-1.06904 2.745937,-1.615718"
       id="path3888"
       inkscape:connector-curvature="0" />
    <path
       style="color:#000000;fill:none;stroke:#391f0d;stroke-width:3;stroke-linecap:round;stroke-linejoin:round;stroke-miterlimit:4;stroke-opacity:1;stroke-dasharray:none;stroke-dashoffset:0;marker:none;visibility:visible;display:inline;overflow:visible;enable-background:accumulate"
       d="m 48.574153,40.078589 c -2.168646,-0.04575 -4.44768,1.679837 -4.629799,3.823503 -0.182119,2.143666 1.217844,2.985158 4.502264,4.412202 3.28442,1.427044 21.044949,1.213118 21.614259,-1.799375 0.56931,-3.012493 -0.0735,-3.164716 -1.625241,-4.826119 -1.551742,-1.661402 -5.156086,-3.132499 -7.89588,-3.273938 -2.739794,-0.141439 -5.025428,-0.410933 -7.557737,-0.452006"
       id="path3899"
       inkscape:connector-curvature="0"
       sodipodi:nodetypes="czzzzzc" />
    <path
       style="color:#000000;fill:none;stroke:#391f0d;stroke-width:3;stroke-linecap:round;stroke-linejoin:round;stroke-miterlimit:4;stroke-opacity:1;stroke-dasharray:none;stroke-dashoffset:0;marker:none;visibility:visible;display:inline;overflow:visible;enable-background:accumulate"
       d="m 74.932904,41.841717 c 2.055521,-0.918091 4.301996,-2.165728 6.699547,-1.051935 2.397551,1.113793 3.980634,4.304162 4.586576,6.678574 0.605942,2.374412 0.330086,3.683823 -0.959236,6.298047 -1.289322,2.614224 -7.37539,5.681709 -10.251245,6.77358 -2.875855,1.091871 -3.870208,1.346791 -5.805776,2.018652"
       id="path3904"
       inkscape:connector-curvature="0"
       sodipodi:nodetypes="czzzzc" />
    <path
       style="color:#000000;fill:none;stroke:#391f0d;stroke-width:3;stroke-linecap:round;stroke-linejoin:round;stroke-miterlimit:4;stroke-opacity:1;stroke-dasharray:none;stroke-dashoffset:0;marker:none;visibility:visible;display:inline;overflow:visible;enable-background:accumulate"
       d="m 27.857409,65.908402 c 3.238292,0.03263 6.526952,-0.07955 9.714257,0.0849 3.220172,-0.01915 6.435174,0.151843 9.656462,0.0916 1.615577,-0.0076 3.21771,-0.124545 4.832596,-0.179951 2.204869,-0.4223 0.75435,2.564838 -0.352165,3.071339 -0.822094,1.368905 -2.139992,2.404598 -3.383594,3.339798 -1.158049,1.269623 -3.009553,1.343077 -4.609195,1.576867 -2.178962,0.788813 -4.520264,0.71137 -6.793909,0.605044 C 34.885508,74.099633 32.6554,74.012055 30.9216,72.747544 29.60427,71.635969 28.308144,70.438921 27.668557,68.798918 27.304331,67.88887 27.210695,66.713566 27.857409,65.908402 z"
       id="path3914"
       inkscape:connector-curvature="0" />
    <path
       style="color:#000000;fill:none;stroke:#391f0d;stroke-width:3;stroke-linecap:round;stroke-linejoin:round;stroke-miterlimit:4;stroke-opacity:1;stroke-dasharray:none;stroke-dashoffset:0;marker:none;visibility:visible;display:inline;overflow:visible;enable-background:accumulate"
       d="m 16.749708,51.538916 c -0.10872,3.693326 1.351819,7.15742 1.495658,10.780176 0.143839,3.622756 -0.133703,7.18655 -0.211482,10.160356 -0.07778,2.973806 -2.633655,7.211902 0.624746,8.458633 3.258401,1.246731 6.149006,1.545322 9.673532,2.05759 3.524526,0.512268 6.827407,1.168061 9.883805,1.161307 3.056398,-0.0068 5.087485,-0.127041 8.081237,-0.711361 2.993752,-0.58432 6.397054,-0.965148 9.534044,-1.695284 3.13699,-0.730136 8.255207,0.456387 8.407599,-3.369547 C 64.391239,74.554852 62.415036,70.554501 62.15037,65.700062 61.885705,60.845623 61.952681,55.05065 62.062225,49.775869"
       id="path3923"
       inkscape:connector-curvature="0"
       sodipodi:nodetypes="czzzzzzzzzc" />
  </g>
</svg>
